# xmcd
#
# Track frame offsets: 
#        150
#        19705
#        40745
#        55492
#        74837
#        96087
#        115125
#        129370
#        143430
#        158560
#
# Disc length: 2302 seconds
#
# Revision: 3
# Processed by: cddbd v1.5.1PL0 Copyright (c) Steve Scherf et al.
# Submitted via: ExactAudioCopy v0.95a5
#
DISCID=8108fc0a
DTITLE=Various Artist - The Real Deal Disk 1
DYEAR=1997
DGENRE=Country
TTITLE0=Kim Richey-Straight As The Cow Flies
TTITLE1=Neal Coty-Chance and Circumstance 
TTITLE2=John Anderson-It's A Long Way Back
TTITLE3=Kathy Mattea-Sending Me Angels
TTITLE4=Tobby Keith-Tired
TTITLE5=Billy Ray Cyrus-Bluegrass State Of Mind 
TTITLE6=Brent Mason-Hot Wired
TTITLE7=Mark Wills-Jacob's Ladder
TTITLE8=Sammy Kershaw-Vadalia
TTITLE9=Terri Clark-Better Things To Do
EXTD=ID3G:   2
EXTT0=
EXTT1=
EXTT2=
EXTT3=
EXTT4=
EXTT5=
EXTT6=
EXTT7=
EXTT8=
EXTT9=
PLAYORDER=
